<?xml version="1.0" encoding="utf-8"?>
<!-- Generator: Adobe Illustrator 16.1.0, SVG Export Plug-In . SVG Version: 6.00 Build 0)  -->
<!DOCTYPE svg PUBLIC "-//W3C//DTD SVG 1.1//EN" "http://www.w3.org/Graphics/SVG/1.1/DTD/svg11.dtd">
<svg version="1.1" id="Layer_1" xmlns="http://www.w3.org/2000/svg" xmlns:xlink="http://www.w3.org/1999/xlink" x="0px" y="0px"
	 width="125px" height="105px" viewBox="0 20 125 105" enable-background="new 0 20 125 105" xml:space="preserve">
<g>
	<path fill="#FFFFFF" d="M23.158,93.047c-0.359-0.146-0.557-0.21-0.928-0.21c-0.399,0-0.865,0.144-0.865,0.66
		c0,0.961,2.13,0.736,2.13,2.379c0,1.061-0.816,1.478-1.81,1.478c-0.349,0-0.69-0.098-1.019-0.208l0.067-0.656
		c0.25,0.1,0.674,0.243,1.033,0.243c0.408,0,0.975-0.229,0.975-0.813c0-1.113-2.129-0.807-2.129-2.354
		c0-0.881,0.697-1.348,1.588-1.348c0.328,0,0.717,0.059,1.063,0.179L23.158,93.047z"/>
	<path fill="#FFFFFF" d="M25.449,92.926h-1.541v-0.623h3.796v0.623H26.16v4.337h-0.711V92.926L25.449,92.926z"/>
	<path fill="#FFFFFF" d="M30.93,95.428h-1.974l0.986-2.456L30.93,95.428z M27.478,97.263h0.75l0.5-1.254h2.432l0.503,1.254h0.774
		l-2.097-4.96h-0.742L27.478,97.263z"/>
	<path fill="#FFFFFF" d="M35.056,97.263h-0.89l-1.868-4.96h0.796l1.527,4.338h0.016l1.573-4.338h0.75L35.056,97.263z"/>
	<path fill="#FFFFFF" d="M40.275,95.428H38.3l0.982-2.456L40.275,95.428z M36.824,97.263h0.744l0.502-1.254h2.433l0.506,1.254h0.774
		l-2.102-4.96h-0.74L36.824,97.263z"/>
	<path fill="#FFFFFF" d="M42.486,92.303h0.965l2.193,3.989h0.012v-3.989h0.713v4.96h-0.912l-2.249-4.079h-0.013v4.079h-0.713v-4.96
		H42.486z"/>
	<path fill="#FFFFFF" d="M51.392,93.179c-0.349-0.229-0.722-0.344-1.361-0.344c-1.146,0-1.904,0.834-1.904,1.947
		c0,1.168,0.838,1.948,1.865,1.948c0.49,0,0.619-0.052,0.798-0.087v-1.513h-1.043v-0.584h1.755v2.586
		c-0.275,0.092-0.742,0.22-1.516,0.22c-1.571,0-2.619-1.009-2.619-2.591c0-1.531,1.113-2.544,2.623-2.544
		c0.729,0,1.048,0.105,1.459,0.251L51.392,93.179z"/>
	<path fill="#FFFFFF" d="M52.787,92.303h2.779v0.623h-2.068v1.448h1.884v0.621h-1.884v1.645h2.068v0.622h-2.779V92.303z"/>
	<path fill="#FFFFFF" d="M57.375,92.926h0.679c0.654,0,0.997,0.284,0.997,0.733c0,0.475-0.399,0.774-1.071,0.774h-0.604V92.926z
		 M56.667,97.263h0.708v-2.206h0.426c0.374,0,0.61,0,0.825,0.483l0.761,1.723h0.815l-0.939-1.979
		c-0.16-0.307-0.267-0.414-0.488-0.498v-0.012c0.58-0.103,1.026-0.525,1.026-1.132c0-1.187-0.946-1.342-1.924-1.342h-1.21V97.263z"
		/>
	<path fill="#FFFFFF" d="M63.055,92.303h0.715v2.185l2.111-2.185h0.945l-2.328,2.349l2.514,2.611h-1.039l-2.203-2.43v2.43h-0.713
		L63.055,92.303L63.055,92.303z"/>
	<path fill="#FFFFFF" d="M71.619,95.216c0,1.394-0.705,2.137-1.926,2.137c-1.225,0-1.928-0.743-1.928-2.137v-2.912h0.709v2.818
		c0,0.951,0.299,1.608,1.219,1.608s1.217-0.657,1.217-1.608v-2.818h0.709V95.216L71.619,95.216z"/>
	<path fill="#FFFFFF" d="M72.881,92.303h0.707v4.338h2.076v0.622h-2.783V92.303z"/>
	<path fill="#FFFFFF" d="M77.037,92.926H75.5v-0.623h3.797v0.623h-1.549v4.337h-0.711V92.926z"/>
	<path fill="#FFFFFF" d="M83.859,95.216c0,1.394-0.705,2.137-1.928,2.137c-1.221,0-1.924-0.743-1.924-2.137v-2.912h0.709v2.818
		c0,0.951,0.297,1.608,1.215,1.608c0.924,0,1.219-0.657,1.219-1.608v-2.818h0.709V95.216L83.859,95.216z"/>
	<path fill="#FFFFFF" d="M85.803,92.926h0.684c0.648,0,0.984,0.284,0.984,0.733c0,0.475-0.393,0.774-1.066,0.774h-0.602V92.926
		L85.803,92.926z M85.092,97.263h0.711v-2.206h0.426c0.377,0,0.607,0,0.83,0.483l0.758,1.723h0.811l-0.934-1.979
		c-0.164-0.307-0.268-0.414-0.49-0.498v-0.012c0.574-0.103,1.029-0.525,1.029-1.132c0-1.187-0.949-1.342-1.924-1.342h-1.215v4.961
		L85.092,97.263L85.092,97.263z"/>
	<path fill="#FFFFFF" d="M89.506,92.303h0.711v2.071h2.377v-2.071h0.707v4.96h-0.707v-2.268h-2.377v2.268h-0.711V92.303z"/>
	<path fill="#FFFFFF" d="M98.463,95.216c0,1.394-0.707,2.137-1.928,2.137c-1.227,0-1.934-0.743-1.934-2.137v-2.912h0.717v2.818
		c0,0.951,0.295,1.608,1.217,1.608c0.914,0,1.217-0.657,1.217-1.608v-2.818h0.711V95.216L98.463,95.216z"/>
	<path fill="#FFFFFF" d="M101.982,93.047c-0.359-0.146-0.563-0.21-0.934-0.21c-0.393,0-0.867,0.144-0.867,0.66
		c0,0.961,2.139,0.736,2.139,2.379c0,1.061-0.822,1.478-1.816,1.478c-0.348,0-0.691-0.098-1.01-0.208l0.066-0.656
		c0.24,0.1,0.67,0.243,1.029,0.243c0.404,0,0.975-0.229,0.975-0.813c0-1.113-2.133-0.807-2.133-2.354
		c0-0.881,0.699-1.348,1.596-1.348c0.322,0,0.717,0.059,1.059,0.179L101.982,93.047z"/>
	<path fill="#FFFFFF" d="M0.204,85.851c0.924,0.541,2.006,0.854,3.472,0.854c1.939,0,3.541-0.914,3.541-2.975
		C7.216,80.878,0,80.525,0,76.72c0-2.329,2.21-3.784,4.983-3.784c0.767,0,2.006,0.104,3.088,0.478l-0.248,1.311
		c-0.699-0.354-1.803-0.541-2.862-0.541c-1.625,0-3.404,0.624-3.404,2.495c0,2.912,7.214,2.932,7.214,7.177
		c0,2.932-2.728,4.098-5.162,4.098c-1.533,0-2.729-0.291-3.563-0.623L0.204,85.851z"/>
	<path fill="#FFFFFF" d="M25.591,73.267l-2.053,2.184c1.015,1.332,1.512,3.121,1.488,4.992c-0.045,4.45-2.39,7.51-6.922,7.51
		c-2.052,0-3.675-0.625-4.779-1.728L11.5,88.159l-0.879-0.688l1.982-2.102c-0.924-1.248-1.397-2.953-1.42-4.931
		c-0.045-3.93,2.188-7.506,6.922-7.506c1.982,0,3.539,0.623,4.666,1.685l1.94-2.039L25.591,73.267z M21.758,75.7
		c-0.879-0.937-2.074-1.519-3.651-1.519c-3.697,0-5.367,3.183-5.367,6.261c0,1.332,0.315,2.663,0.971,3.743L21.758,75.7z
		 M14.385,85.122c0.856,0.957,2.097,1.582,3.722,1.582c3.696,0,5.365-3.184,5.365-6.263c0-1.351-0.316-2.725-1.015-3.848
		L14.385,85.122z"/>
	<path fill="#FFFFFF" d="M28.048,73.184h1.557v13.271h6.313v1.248h-7.87V73.184z"/>
	<path fill="#FFFFFF" d="M43.41,87.702h-1.668l-5.862-14.519h1.646l5.073,13.083l5.252-13.083h1.533L43.41,87.702z"/>
	<path fill="#FFFFFF" d="M51.836,73.184h3.743c2.568,0,4.982,0.79,4.982,3.578c0,1.85-0.926,2.952-2.863,3.307v0.042
		c1.983,0.331,3.336,1.539,3.336,3.453c0,3.161-2.797,4.139-6.064,4.139h-3.134V73.184L51.836,73.184z M53.392,86.454h1.624
		c2.097,0,4.464-0.521,4.464-2.83c0-2.577-2.412-2.849-4.713-2.849h-1.375V86.454L53.392,86.454z M53.437,79.527h1.735
		c1.646,0,3.833-0.395,3.833-2.702c0-2.103-2.096-2.395-3.426-2.395h-2.143V79.527z"/>
	<path fill="#FFFFFF" d="M64.506,73.184h7.711v1.247h-6.152v5.179h5.838v1.249h-5.838v5.596h6.424v1.248h-7.98V73.184H64.506z"/>
	<path fill="#FFFFFF" d="M75.826,73.184h4.059c2.795,0,4.621,1.103,4.621,3.767c0,1.87-1.555,3.118-3.494,3.347v0.042
		c1.264,0.146,1.533,0.77,2.029,1.746l2.684,5.617h-1.713l-2.275-4.91c-0.902-1.871-1.58-1.934-3.066-1.934h-1.287v6.844h-1.555
		L75.826,73.184L75.826,73.184z M77.381,79.61h1.646c1.826,0,3.922-0.645,3.922-2.66c0-2.373-1.826-2.519-3.967-2.519h-1.602V79.61
		L77.381,79.61z"/>
	<path fill="#FFFFFF" d="M99.094,81.088h-3.652v-1.247h5.211v7.216c-1.604,0.646-3.158,0.896-4.896,0.896
		c-4.959,0-7.936-3.017-7.936-7.511c0-4.407,3.064-7.506,7.936-7.506c1.197,0,3.158,0.185,4.219,0.687l-0.182,1.33
		c-1.217-0.623-2.66-0.77-4.037-0.77c-4.08,0-6.379,2.662-6.379,6.26c0,3.661,2.23,6.262,6.379,6.262
		c0.971,0,2.596-0.104,3.338-0.521V81.088L99.094,81.088z"/>
	<path fill="#FFFFFF" d="M104.596,73.184h7.711v1.247h-6.154v5.179h5.838v1.249h-5.838v5.596h6.424v1.248h-7.98V73.184
		L104.596,73.184z"/>
	<path fill="#FFFFFF" d="M118.799,74.432h-4.645v-1.247H125v1.247h-4.645v13.271h-1.557V74.432L118.799,74.432z"/>
	<g>
		<rect x="43.5" y="28.558" width="38.386" height="36.296"/>
		<g>
			<path fill="#FFFFFF" d="M77.734,57.487l-14.379-23.96l-0.661-1.099l-0.66,1.099L47.669,57.488l-0.698,1.165h1.358h28.745h1.357
				L77.734,57.487z M67.307,43.104h-9.22l1.88-3.136h5.458L67.307,43.104z M68.23,44.644l1.883,3.135H55.286l1.88-3.135H68.23z
				 M71.035,49.315l1.885,3.141H52.482l1.881-3.141H71.035z M73.842,53.995l1.873,3.121H49.687l1.87-3.121H73.842z M62.695,35.419
				l1.807,3.013h-3.615L62.695,35.419z"/>
			<path fill="#FFFFFF" d="M42.59,27.646v38.118h40.208V27.646H42.59z M81.887,64.854H43.501V28.558h38.385V64.854z"/>
		</g>
	</g>
</g>
</svg>
