<?xml version="1.0" encoding="utf-8"?>
<!-- Generator: Adobe Illustrator 16.1.0, SVG Export Plug-In . SVG Version: 6.00 Build 0)  -->
<!DOCTYPE svg PUBLIC "-//W3C//DTD SVG 1.1//EN" "http://www.w3.org/Graphics/SVG/1.1/DTD/svg11.dtd">
<svg version="1.1" id="Layer_1" xmlns="http://www.w3.org/2000/svg" xmlns:xlink="http://www.w3.org/1999/xlink" x="0px" y="0px"
	 width="125px" height="105px" viewBox="0 20 125 105" enable-background="new 0 20 125 105" xml:space="preserve">
<g>
	<path fill="#FFFFFF" d="M0.204,90.448c0.924,0.54,2.006,0.854,3.472,0.854c1.939,0,3.541-0.914,3.541-2.975
		C7.216,85.477,0,85.124,0,81.316c0-2.328,2.21-3.782,4.983-3.782c0.767,0,2.006,0.104,3.088,0.477l-0.248,1.311
		c-0.699-0.354-1.803-0.541-2.862-0.541c-1.625,0-3.404,0.623-3.404,2.494c0,2.912,7.214,2.932,7.214,7.178
		c0,2.933-2.728,4.097-5.162,4.097c-1.533,0-2.729-0.291-3.563-0.623L0.204,90.448z"/>
	<path fill="#FFFFFF" d="M25.591,77.863l-2.053,2.185c1.015,1.332,1.512,3.121,1.488,4.992c-0.045,4.451-2.39,7.51-6.922,7.51
		c-2.052,0-3.675-0.625-4.779-1.728L11.5,92.757l-0.879-0.688l1.982-2.1c-0.924-1.248-1.397-2.953-1.42-4.933
		c-0.045-3.93,2.188-7.506,6.922-7.506c1.982,0,3.539,0.623,4.666,1.685l1.94-2.037L25.591,77.863z M21.758,80.298
		c-0.879-0.937-2.074-1.519-3.651-1.519c-3.697,0-5.367,3.183-5.367,6.261c0,1.332,0.315,2.664,0.971,3.744L21.758,80.298z
		 M14.385,89.719c0.856,0.957,2.097,1.582,3.722,1.582c3.696,0,5.365-3.185,5.365-6.263c0-1.352-0.316-2.725-1.015-3.848
		L14.385,89.719z"/>
	<path fill="#FFFFFF" d="M28.048,77.782h1.557v13.27h6.313V92.3h-7.87V77.782z"/>
	<path fill="#FFFFFF" d="M43.41,92.299h-1.668L35.879,77.78h1.646l5.073,13.082L47.85,77.78h1.533L43.41,92.299z"/>
	<path fill="#FFFFFF" d="M51.836,77.782h3.743c2.568,0,4.982,0.788,4.982,3.577c0,1.851-0.926,2.951-2.863,3.308v0.041
		c1.983,0.332,3.336,1.539,3.336,3.453c0,3.162-2.797,4.139-6.064,4.139h-3.134V77.782L51.836,77.782z M53.392,91.051h1.624
		c2.097,0,4.464-0.521,4.464-2.83c0-2.578-2.412-2.849-4.713-2.849h-1.375V91.051L53.392,91.051z M53.437,84.126h1.735
		c1.646,0,3.833-0.396,3.833-2.703c0-2.103-2.096-2.396-3.426-2.396h-2.143V84.126z"/>
	<path fill="#FFFFFF" d="M64.506,77.782h7.711v1.245h-6.152v5.181h5.838v1.248h-5.838v5.596h6.424V92.3h-7.98V77.782H64.506z"/>
	<path fill="#FFFFFF" d="M75.826,77.782h4.059c2.795,0,4.621,1.102,4.621,3.766c0,1.871-1.555,3.119-3.494,3.346v0.043
		c1.264,0.145,1.533,0.77,2.029,1.746l2.684,5.617h-1.713l-2.275-4.91c-0.902-1.871-1.58-1.934-3.066-1.934h-1.287V92.3h-1.555
		L75.826,77.782L75.826,77.782z M77.381,84.208h1.646c1.826,0,3.922-0.646,3.922-2.66c0-2.373-1.826-2.519-3.967-2.519h-1.602
		V84.208L77.381,84.208z"/>
	<path fill="#FFFFFF" d="M99.094,85.684h-3.652v-1.246h5.211v7.215c-1.604,0.646-3.158,0.896-4.896,0.896
		c-4.959,0-7.936-3.016-7.936-7.51c0-4.408,3.064-7.506,7.936-7.506c1.197,0,3.158,0.186,4.219,0.686l-0.182,1.332
		c-1.217-0.625-2.66-0.771-4.037-0.771c-4.08,0-6.379,2.662-6.379,6.261c0,3.66,2.23,6.262,6.379,6.262
		c0.971,0,2.596-0.105,3.338-0.521V85.684L99.094,85.684z"/>
	<path fill="#FFFFFF" d="M104.596,77.782h7.711v1.245h-6.154v5.181h5.838v1.248h-5.838v5.596h6.424V92.3h-7.98V77.782
		L104.596,77.782z"/>
	<path fill="#FFFFFF" d="M118.799,79.029h-4.645v-1.247H125v1.247h-4.645V92.3h-1.557V79.029L118.799,79.029z"/>
	<g>
		<rect x="43.5" y="33.154" width="38.386" height="36.298"/>
		<g>
			<path fill="#FFFFFF" d="M77.734,62.085L63.355,38.126l-0.661-1.1l-0.66,1.1L47.669,62.087l-0.698,1.164h1.358h28.745h1.357
				L77.734,62.085z M67.307,47.702h-9.22l1.88-3.137h5.458L67.307,47.702z M68.23,49.241l1.883,3.135H55.286l1.88-3.135H68.23z
				 M71.035,53.913l1.885,3.141H52.482l1.881-3.141H71.035z M73.842,58.593l1.873,3.12H49.687l1.87-3.12H73.842z M62.695,40.016
				l1.807,3.013h-3.615L62.695,40.016z"/>
			<path fill="#FFFFFF" d="M42.59,32.243v38.118h40.208V32.243H42.59z M81.887,69.452H43.501V33.154h38.385V69.452z"/>
		</g>
	</g>
</g>
</svg>
