<?xml version="1.0" encoding="utf-8"?>
<!-- Generator: Adobe Illustrator 16.1.0, SVG Export Plug-In . SVG Version: 6.00 Build 0)  -->
<!DOCTYPE svg PUBLIC "-//W3C//DTD SVG 1.1//EN" "http://www.w3.org/Graphics/SVG/1.1/DTD/svg11.dtd">
<svg version="1.1" id="Layer_1" xmlns="http://www.w3.org/2000/svg" xmlns:xlink="http://www.w3.org/1999/xlink" x="0px" y="0px"
	 width="309.571px" height="218.889px" viewBox="0 0 309.571 218.889" enable-background="new 0 0 309.571 218.889"
	 xml:space="preserve">
<g>
	<path fill="#FFFFFF" d="M87.374,161.784c-0.616-0.247-0.953-0.358-1.589-0.358c-0.685,0-1.482,0.245-1.482,1.133
		c0,1.646,3.648,1.262,3.648,4.074c0,1.816-1.398,2.531-3.099,2.531c-0.598,0-1.184-0.168-1.745-0.356l0.114-1.124
		c0.429,0.168,1.155,0.416,1.772,0.416c0.7,0,1.67-0.394,1.67-1.394c0-1.909-3.647-1.382-3.647-4.035
		c0-1.508,1.194-2.308,2.719-2.308c0.562,0,1.229,0.1,1.821,0.306L87.374,161.784z"/>
	<path fill="#FFFFFF" d="M91.299,161.578H88.66v-1.066h6.502v1.066h-2.645v7.432h-1.219L91.299,161.578L91.299,161.578z"/>
	<path fill="#FFFFFF" d="M100.692,165.865H97.31l1.692-4.207L100.692,165.865z M94.777,169.01h1.282l0.859-2.147h4.166l0.86,2.147
		h1.326l-3.591-8.498h-1.271L94.777,169.01z"/>
	<path fill="#FFFFFF" d="M107.762,169.01h-1.525l-3.2-8.498h1.364l2.617,7.433h0.027l2.695-7.433h1.286L107.762,169.01z"/>
	<path fill="#FFFFFF" d="M116.703,165.865h-3.382l1.684-4.207L116.703,165.865z M110.79,169.01h1.277l0.861-2.147h4.167l0.867,2.147
		h1.328l-3.602-8.498h-1.268L110.79,169.01z"/>
	<path fill="#FFFFFF" d="M120.492,160.512h1.654l3.759,6.836h0.021v-6.836h1.221v8.498h-1.562l-3.853-6.988h-0.023v6.988h-1.22
		v-8.498H120.492z"/>
	<path fill="#FFFFFF" d="M135.753,162.013c-0.598-0.392-1.238-0.587-2.335-0.587c-1.963,0-3.263,1.428-3.263,3.335
		c0,2.002,1.437,3.339,3.196,3.339c0.842,0,1.063-0.088,1.369-0.15v-2.591h-1.788v-1h3.008v4.431
		c-0.472,0.156-1.271,0.376-2.595,0.376c-2.693,0-4.487-1.729-4.487-4.44c0-2.622,1.905-4.359,4.493-4.359
		c1.247,0,1.795,0.183,2.5,0.431L135.753,162.013z"/>
	<path fill="#FFFFFF" d="M138.141,160.512h4.764v1.066h-3.545v2.484h3.228v1.064h-3.228v2.817h3.545v1.065h-4.764V160.512z"/>
	<path fill="#FFFFFF" d="M146.004,161.578h1.164c1.121,0,1.708,0.491,1.708,1.257c0,0.815-0.685,1.33-1.836,1.33h-1.036V161.578z
		 M144.792,169.01h1.212v-3.78h0.73c0.64,0,1.045,0,1.414,0.831l1.304,2.949h1.396l-1.609-3.39
		c-0.273-0.524-0.457-0.708-0.837-0.853v-0.019c0.994-0.176,1.76-0.902,1.76-1.939c0-2.031-1.622-2.299-3.296-2.299h-2.074V169.01z"
		/>
	<path fill="#FFFFFF" d="M155.737,160.512h1.223v3.742l3.621-3.742h1.617l-3.986,4.023l4.304,4.475h-1.779l-3.776-4.162v4.162
		h-1.222L155.737,160.512L155.737,160.512z"/>
	<path fill="#FFFFFF" d="M170.409,165.501c0,2.388-1.205,3.662-3.298,3.662c-2.097,0-3.301-1.274-3.301-3.662v-4.989h1.215v4.829
		c0,1.632,0.511,2.758,2.086,2.758c1.574,0,2.083-1.126,2.083-2.758v-4.829h1.217v4.989H170.409z"/>
	<path fill="#FFFFFF" d="M172.575,160.512h1.211v7.433h3.559v1.065h-4.77V160.512z"/>
	<path fill="#FFFFFF" d="M179.693,161.578h-2.633v-1.066h6.505v1.066h-2.652v7.432h-1.22V161.578z"/>
	<path fill="#FFFFFF" d="M191.383,165.501c0,2.388-1.207,3.662-3.301,3.662c-2.092,0-3.297-1.274-3.297-3.662v-4.989H186v4.829
		c0,1.632,0.508,2.758,2.082,2.758c1.58,0,2.086-1.126,2.086-2.758v-4.829h1.215V165.501L191.383,165.501z"/>
	<path fill="#FFFFFF" d="M194.715,161.578h1.168c1.113,0,1.689,0.491,1.689,1.257c0,0.815-0.673,1.33-1.83,1.33h-1.029v-2.587
		H194.715z M193.497,169.01h1.219v-3.78h0.728c0.646,0,1.042,0,1.421,0.831l1.299,2.949h1.387l-1.598-3.39
		c-0.281-0.524-0.457-0.708-0.841-0.853v-0.019c0.986-0.176,1.763-0.902,1.763-1.939c0-2.031-1.625-2.299-3.295-2.299h-2.082V169.01
		z"/>
	<path fill="#FFFFFF" d="M201.059,160.512h1.218v3.551h4.074v-3.551h1.211v8.498h-1.211v-3.883h-4.074v3.883h-1.218V160.512z"/>
	<path fill="#FFFFFF" d="M216.407,165.501c0,2.388-1.211,3.662-3.304,3.662c-2.101,0-3.312-1.274-3.312-3.662v-4.989h1.227v4.829
		c0,1.632,0.504,2.758,2.085,2.758c1.565,0,2.085-1.126,2.085-2.758v-4.829h1.219V165.501z"/>
	<path fill="#FFFFFF" d="M222.437,161.784c-0.616-0.247-0.963-0.358-1.597-0.358c-0.676,0-1.487,0.245-1.487,1.133
		c0,1.646,3.661,1.262,3.661,4.074c0,1.816-1.408,2.531-3.11,2.531c-0.595,0-1.187-0.168-1.729-0.356l0.113-1.124
		c0.414,0.168,1.148,0.416,1.764,0.416c0.695,0,1.668-0.394,1.668-1.394c0-1.909-3.651-1.382-3.651-4.035
		c0-1.508,1.196-2.308,2.733-2.308c0.552,0,1.228,0.1,1.813,0.306L222.437,161.784z"/>
	<path fill="#FFFFFF" d="M48.043,149.456c1.583,0.927,3.438,1.462,5.948,1.462c3.323,0,6.067-1.568,6.067-5.097
		c0-4.884-12.364-5.489-12.364-12.011c0-3.99,3.787-6.484,8.538-6.484c1.314,0,3.438,0.177,5.293,0.817l-0.426,2.246
		c-1.197-0.605-3.09-0.927-4.904-0.927c-2.784,0-5.833,1.069-5.833,4.275c0,4.99,12.361,5.024,12.361,12.297
		c0,5.024-4.673,7.02-8.846,7.02c-2.627,0-4.676-0.499-6.105-1.068L48.043,149.456z"/>
	<path fill="#FFFFFF" d="M91.545,127.894l-3.518,3.742c1.739,2.28,2.59,5.347,2.551,8.553c-0.077,7.626-4.094,12.866-11.86,12.866
		c-3.517,0-6.298-1.068-8.19-2.958l-3.129,3.314l-1.506-1.177l3.398-3.6c-1.583-2.138-2.395-5.06-2.433-8.447
		c-0.077-6.735,3.748-12.863,11.86-12.863c3.398,0,6.065,1.068,7.998,2.886l3.323-3.493L91.545,127.894z M84.976,132.063
		c-1.506-1.604-3.553-2.601-6.257-2.601c-6.335,0-9.196,5.453-9.196,10.727c0,2.282,0.542,4.563,1.663,6.415L84.976,132.063z
		 M72.343,148.208c1.468,1.639,3.592,2.709,6.375,2.709c6.335,0,9.195-5.454,9.195-10.729c0-2.315-0.542-4.668-1.74-6.593
		L72.343,148.208z"/>
	<path fill="#FFFFFF" d="M95.755,127.752h2.667v22.736h10.817v2.139H95.755V127.752z"/>
	<path fill="#FFFFFF" d="M122.074,152.627h-2.858l-10.045-24.875h2.82l8.693,22.416l9-22.416h2.627L122.074,152.627z"/>
	<path fill="#FFFFFF" d="M136.514,127.752h6.414c4.402,0,8.536,1.353,8.536,6.13c0,3.17-1.584,5.059-4.906,5.666v0.072
		c3.399,0.568,5.717,2.637,5.717,5.916c0,5.417-4.791,7.092-10.39,7.092h-5.371V127.752L136.514,127.752z M139.18,150.489h2.782
		c3.592,0,7.648-0.892,7.648-4.848c0-4.417-4.133-4.881-8.074-4.881h-2.355L139.18,150.489L139.18,150.489z M139.256,138.621h2.974
		c2.821,0,6.568-0.676,6.568-4.632c0-3.601-3.592-4.1-5.871-4.1h-3.671V138.621z"/>
	<path fill="#FFFFFF" d="M158.225,127.752h13.212v2.137h-10.546v8.873h10.006v2.141h-10.006v9.586H171.9v2.139h-13.675V127.752z"/>
	<path fill="#FFFFFF" d="M177.62,127.752h6.953c4.79,0,7.92,1.889,7.92,6.451c0,3.207-2.666,5.345-5.988,5.736v0.071
		c2.164,0.25,2.627,1.319,3.477,2.994l4.598,9.623h-2.935l-3.903-8.412c-1.545-3.207-2.705-3.313-5.254-3.313h-2.203v11.725h-2.664
		V127.752z M180.284,138.763h2.82c3.129,0,6.721-1.104,6.721-4.56c0-4.063-3.129-4.313-6.799-4.313h-2.742V138.763z"/>
	<path fill="#FFFFFF" d="M217.489,141.293h-6.259v-2.137h8.927v12.366c-2.746,1.104-5.412,1.531-8.386,1.531
		c-8.5,0-13.599-5.167-13.599-12.866c0-7.554,5.252-12.863,13.599-12.863c2.049,0,5.409,0.318,7.226,1.175l-0.31,2.28
		c-2.086-1.068-4.558-1.318-6.916-1.318c-6.992,0-10.933,4.562-10.933,10.727c0,6.273,3.824,10.729,10.933,10.729
		c1.661,0,4.444-0.179,5.718-0.893V141.293L217.489,141.293z"/>
	<path fill="#FFFFFF" d="M226.915,127.752h13.213v2.137h-10.547v8.873h10.006v2.141h-10.006v9.586h11.01v2.139h-13.676V127.752z"/>
	<path fill="#FFFFFF" d="M251.254,129.89h-7.959v-2.137h18.582v2.137h-7.957v22.738h-2.666V129.89z"/>
	<g>
		<rect x="122.231" y="51.285" width="65.775" height="62.194"/>
		<g>
			<path fill="#FFFFFF" d="M180.887,100.858L156.25,59.802l-1.13-1.884l-1.13,1.884l-24.615,41.057l-1.196,1.996h2.326h49.253h2.326
				L180.887,100.858z M163.023,76.212h-15.8l3.221-5.374h9.354L163.023,76.212z M164.605,78.848l3.224,5.372h-25.406l3.221-5.372
				H164.605z M169.411,86.854l3.229,5.382h-35.023l3.226-5.382H169.411z M174.219,94.872l3.21,5.347H132.83l3.205-5.347H174.219z
				 M155.119,63.041l3.098,5.162h-6.193L155.119,63.041z"/>
			<path fill="#FFFFFF" d="M120.672,49.725v65.314h68.895V49.725H120.672z M188.006,113.479h-65.774V51.285h65.774V113.479z"/>
		</g>
	</g>
</g>
</svg>
