<?xml version="1.0" encoding="utf-8"?>
<!-- Generator: Adobe Illustrator 16.0.0, SVG Export Plug-In . SVG Version: 6.00 Build 0)  -->
<!DOCTYPE svg PUBLIC "-//W3C//DTD SVG 1.1//EN" "http://www.w3.org/Graphics/SVG/1.1/DTD/svg11.dtd">
<svg version="1.1" id="Layer_1" xmlns="http://www.w3.org/2000/svg" xmlns:xlink="http://www.w3.org/1999/xlink" x="0px" y="0px"
	 width="309.571px" height="218.889px" viewBox="0 0 309.571 218.889" enable-background="new 0 0 309.571 218.889"
	 xml:space="preserve">
<g>
	<path d="M87.374,161.784c-0.616-0.247-0.953-0.358-1.589-0.358c-0.685,0-1.482,0.245-1.482,1.133c0,1.645,3.648,1.262,3.648,4.074
		c0,1.816-1.398,2.531-3.099,2.531c-0.598,0-1.184-0.168-1.745-0.356l0.114-1.124c0.429,0.168,1.155,0.416,1.772,0.416
		c0.7,0,1.67-0.394,1.67-1.394c0-1.909-3.647-1.382-3.647-4.035c0-1.508,1.194-2.308,2.719-2.308c0.562,0,1.229,0.1,1.821,0.306
		L87.374,161.784z"/>
	<path d="M91.299,161.578h-2.639v-1.066h6.502v1.066h-2.645v7.432h-1.219V161.578z"/>
	<path d="M100.692,165.865H97.31l1.692-4.207L100.692,165.865z M94.777,169.01h1.282l0.859-2.147h4.166l0.86,2.147h1.326
		l-3.591-8.498h-1.271L94.777,169.01z"/>
	<path d="M107.762,169.01h-1.525l-3.2-8.498h1.364l2.617,7.433h0.027l2.695-7.433h1.286L107.762,169.01z"/>
	<path d="M116.703,165.865h-3.382l1.684-4.207L116.703,165.865z M110.79,169.01h1.277l0.861-2.147h4.167l0.867,2.147h1.328
		l-3.602-8.498h-1.268L110.79,169.01z"/>
	<path d="M120.492,160.512h1.654l3.759,6.836h0.022v-6.836h1.221v8.498h-1.562l-3.853-6.988h-0.023v6.988h-1.22V160.512z"/>
	<path d="M135.753,162.013c-0.598-0.392-1.238-0.587-2.335-0.587c-1.963,0-3.263,1.428-3.263,3.335c0,2.002,1.437,3.339,3.196,3.339
		c0.842,0,1.063-0.088,1.369-0.151v-2.59h-1.788v-1h3.008v4.43c-0.472,0.157-1.271,0.376-2.595,0.376
		c-2.693,0-4.487-1.729-4.487-4.44c0-2.622,1.905-4.36,4.493-4.36c1.247,0,1.795,0.183,2.5,0.431L135.753,162.013z"/>
	<path d="M138.141,160.512h4.764v1.066h-3.545v2.485h3.228v1.064h-3.228v2.818h3.545v1.065h-4.764V160.512z"/>
	<path d="M146.004,161.578h1.164c1.121,0,1.708,0.492,1.708,1.257c0,0.816-0.685,1.33-1.836,1.33h-1.036V161.578z M144.792,169.01
		h1.212v-3.78h0.73c0.64,0,1.045,0,1.414,0.831l1.304,2.949h1.396l-1.609-3.39c-0.273-0.524-0.457-0.708-0.837-0.852v-0.019
		c0.994-0.176,1.76-0.902,1.76-1.939c0-2.031-1.622-2.299-3.296-2.299h-2.074V169.01z"/>
	<path d="M155.737,160.512h1.222v3.742l3.622-3.742h1.616l-3.986,4.023l4.304,4.475h-1.779l-3.776-4.162v4.162h-1.222V160.512z"/>
	<path d="M170.409,165.501c0,2.388-1.206,3.662-3.298,3.662c-2.097,0-3.301-1.274-3.301-3.662v-4.989h1.215v4.829
		c0,1.632,0.511,2.758,2.086,2.758c1.574,0,2.083-1.126,2.083-2.758v-4.829h1.216V165.501z"/>
	<path d="M172.574,160.512h1.211v7.433h3.559v1.065h-4.77V160.512z"/>
	<path d="M179.693,161.578h-2.633v-1.066h6.505v1.066h-2.653v7.432h-1.219V161.578z"/>
	<path d="M191.384,165.501c0,2.388-1.207,3.662-3.301,3.662c-2.093,0-3.297-1.274-3.297-3.662v-4.989H186v4.829
		c0,1.632,0.508,2.758,2.083,2.758c1.579,0,2.086-1.126,2.086-2.758v-4.829h1.215V165.501z"/>
	<path d="M194.715,161.578h1.169c1.113,0,1.689,0.492,1.689,1.257c0,0.816-0.673,1.33-1.831,1.33h-1.028V161.578z M193.496,169.01
		h1.219v-3.78h0.728c0.646,0,1.042,0,1.421,0.831l1.299,2.949h1.386l-1.597-3.39c-0.282-0.524-0.458-0.708-0.841-0.852v-0.019
		c0.986-0.176,1.762-0.902,1.762-1.939c0-2.031-1.625-2.299-3.294-2.299h-2.083V169.01z"/>
	<path d="M201.059,160.512h1.218v3.551h4.074v-3.551h1.211v8.498h-1.211v-3.883h-4.074v3.883h-1.218V160.512z"/>
	<path d="M216.407,165.501c0,2.388-1.211,3.662-3.304,3.662c-2.101,0-3.311-1.274-3.311-3.662v-4.989h1.226v4.829
		c0,1.632,0.504,2.758,2.085,2.758c1.565,0,2.085-1.126,2.085-2.758v-4.829h1.219V165.501z"/>
	<path d="M222.437,161.784c-0.616-0.247-0.963-0.358-1.597-0.358c-0.675,0-1.487,0.245-1.487,1.133c0,1.645,3.661,1.262,3.661,4.074
		c0,1.816-1.408,2.531-3.11,2.531c-0.595,0-1.187-0.168-1.729-0.356l0.113-1.124c0.413,0.168,1.148,0.416,1.764,0.416
		c0.695,0,1.667-0.394,1.667-1.394c0-1.909-3.651-1.382-3.651-4.035c0-1.508,1.196-2.308,2.733-2.308c0.552,0,1.228,0.1,1.813,0.306
		L222.437,161.784z"/>
	<path d="M48.043,149.456c1.583,0.927,3.438,1.462,5.948,1.462c3.323,0,6.067-1.568,6.067-5.097c0-4.883-12.364-5.489-12.364-12.01
		c0-3.991,3.787-6.485,8.538-6.485c1.314,0,3.438,0.177,5.293,0.818l-0.426,2.246c-1.197-0.606-3.09-0.927-4.904-0.927
		c-2.784,0-5.833,1.069-5.833,4.275c0,4.991,12.361,5.025,12.361,12.297c0,5.025-4.673,7.02-8.846,7.02
		c-2.627,0-4.676-0.499-6.105-1.068L48.043,149.456z"/>
	<path d="M91.545,127.894l-3.518,3.742c1.739,2.28,2.59,5.347,2.551,8.553c-0.077,7.626-4.094,12.866-11.86,12.866
		c-3.517,0-6.298-1.068-8.19-2.958l-3.129,3.314l-1.506-1.176l3.398-3.6c-1.583-2.138-2.395-5.06-2.433-8.447
		c-0.077-6.736,3.748-12.864,11.86-12.864c3.398,0,6.065,1.069,7.998,2.886l3.323-3.493L91.545,127.894z M84.976,132.063
		c-1.506-1.604-3.553-2.601-6.257-2.601c-6.335,0-9.196,5.453-9.196,10.727c0,2.282,0.542,4.562,1.663,6.415L84.976,132.063z
		 M72.343,148.208c1.468,1.639,3.592,2.709,6.375,2.709c6.335,0,9.195-5.454,9.195-10.729c0-2.316-0.542-4.668-1.74-6.593
		L72.343,148.208z"/>
	<path d="M95.755,127.752h2.667v22.736h10.817v2.139H95.755V127.752z"/>
	<path d="M122.074,152.627h-2.858l-10.045-24.875h2.82l8.693,22.416l9-22.416h2.627L122.074,152.627z"/>
	<path d="M136.514,127.752h6.414c4.402,0,8.536,1.353,8.536,6.13c0,3.17-1.584,5.059-4.906,5.666v0.072
		c3.399,0.569,5.717,2.637,5.717,5.916c0,5.417-4.791,7.092-10.39,7.092h-5.371V127.752z M139.18,150.488h2.782
		c3.592,0,7.648-0.891,7.648-4.847c0-4.417-4.133-4.881-8.074-4.881h-2.355V150.488z M139.256,138.621h2.974
		c2.821,0,6.568-0.676,6.568-4.632c0-3.6-3.592-4.099-5.871-4.099h-3.671V138.621z"/>
	<path d="M158.225,127.752h13.212v2.137h-10.546v8.873h10.006v2.141h-10.006v9.585H171.9v2.139h-13.675V127.752z"/>
	<path d="M177.619,127.752h6.954c4.79,0,7.92,1.889,7.92,6.451c0,3.207-2.667,5.345-5.988,5.737v0.071
		c2.164,0.25,2.626,1.319,3.476,2.994l4.598,9.623h-2.935l-3.903-8.412c-1.545-3.207-2.705-3.313-5.254-3.313h-2.203v11.724h-2.665
		V127.752z M180.283,138.763h2.821c3.129,0,6.721-1.104,6.721-4.56c0-4.063-3.129-4.313-6.799-4.313h-2.743V138.763z"/>
	<path d="M217.488,141.293h-6.258v-2.137h8.926v12.367c-2.745,1.104-5.411,1.531-8.385,1.531c-8.5,0-13.599-5.167-13.599-12.866
		c0-7.554,5.253-12.864,13.599-12.864c2.049,0,5.409,0.319,7.225,1.175l-0.309,2.28c-2.086-1.068-4.558-1.318-6.916-1.318
		c-6.992,0-10.933,4.562-10.933,10.727c0,6.273,3.825,10.729,10.933,10.729c1.661,0,4.444-0.179,5.718-0.892V141.293z"/>
	<path d="M226.915,127.752h13.212v2.137h-10.546v8.873h10.005v2.141h-10.005v9.585h11.009v2.139h-13.675V127.752z"/>
	<path d="M251.254,129.89h-7.959v-2.137h18.582v2.137h-7.957v22.738h-2.666V129.89z"/>
	<g>
		<rect x="122.231" y="51.285" width="65.775" height="62.195"/>
		<g>
			<path fill="#FFFFFF" d="M180.887,100.858L156.25,59.802l-1.13-1.884l-1.13,1.884l-24.615,41.057l-1.196,1.996h2.326h49.253h2.327
				L180.887,100.858z M163.023,76.212h-15.8l3.221-5.374h9.354L163.023,76.212z M164.605,78.848l3.224,5.372h-25.406l3.221-5.372
				H164.605z M169.41,86.854l3.229,5.382h-35.023l3.226-5.382H169.41z M174.22,94.872l3.209,5.347h-44.599l3.205-5.347H174.22z
				 M155.119,63.041l3.098,5.162h-6.193L155.119,63.041z"/>
			<path fill="#FFFFFF" d="M120.672,49.725v65.314h68.895V49.725H120.672z M188.007,113.479h-65.775V51.285h65.775V113.479z"/>
		</g>
	</g>
</g>
</svg>
